<svg xmlns="http://www.w3.org/2000/svg" viewBox="0 0 41 40" width="41" height="40" shape-rendering="crispEdges">
  <path fill="#1c1834" d="M15 2h11v1H15zM14 3h2v1H14zM25 3h2v1H25zM13 4h1v1H13zM18 4h5v1H18zM27 4h2v1H27zM11 5h2v1H11zM15 5h11v1H15zM29 5h1v1H29zM10 6h2v1H10zM13 6h15v1H13zM30 6h1v1H30zM9 7h2v1H9zM12 7h17v1H12zM31 7h1v1H31zM8 8h2v1H8zM11 8h19v1H11zM31 8h2v1H31zM7 9h2v1H7zM10 9h21v1H10zM32 9h2v1H32zM7 10h1v1H7zM10 10h21v1H10zM33 10h1v1H33zM7 11h1v1H7zM9 11h1v1H9zM12 11h16v1H12zM29 11h3v1H29zM33 11h1v1H33zM6 12h1v1H6zM9 12h1v1H9zM14 12h1v1H14zM17 12h1v1H17zM20 12h1v1H20zM23 12h3v1H23zM29 12h3v1H29zM34 12h1v1H34zM5 13h2v1H5zM8 13h1v1H8zM13 13h2v1H13zM17 13h1v1H17zM20 13h1v1H20zM23 13h3v1H23zM29 13h4v1H29zM34 13h1v1H34zM7 14h2v1H7zM11 14h17v1H11zM29 14h5v1H29zM35 14h1v1H35zM4 15h1v1H4zM7 15h2v1H7zM10 15h4v1H10zM15 15h19v1H15zM35 15h1v1H35zM4 16h10v1H4zM15 16h10v1H15zM26 16h8v1H26zM35 16h1v1H35zM4 17h9v1H4zM16 17h9v1H16zM26 17h11v1H26zM3 18h1v1H3zM6 18h8v1H6zM17 18h6v1H17zM26 18h9v1H26zM36 18h2v1H36zM2 19h1v1H2zM6 19h7v1H6zM18 19h5v1H18zM28 19h6v1H28zM38 19h1v1H38zM2 20h1v1H2zM7 20h9v1H7zM20 20h2v1H20zM23 20h11v1H23zM38 20h1v1H38zM2 21h1v1H2zM7 21h1v1H7zM9 21h5v1H9zM15 21h2v1H15zM21 21h3v1H21zM25 21h9v1H25zM38 21h1v1H38zM2 22h1v1H2zM7 22h1v1H7zM9 22h2v1H9zM12 22h1v1H12zM15 22h2v1H15zM22 22h2v1H22zM26 22h2v1H26zM29 22h5v1H29zM38 22h1v1H38zM2 23h1v1H2zM7 23h1v1H7zM9 23h2v1H9zM12 23h4v1H12zM23 23h5v1H23zM29 23h5v1H29zM38 23h1v1H38zM2 24h2v1H2zM6 24h2v1H6zM9 24h2v1H9zM12 24h1v1H12zM14 24h2v1H14zM23 24h1v1H23zM25 24h1v1H25zM27 24h1v1H27zM31 24h3v1H31zM37 24h2v1H37zM2 25h2v1H2zM6 25h2v1H6zM26 25h1v1H26zM31 25h3v1H31zM37 25h2v1H37zM3 26h6v1H3zM31 26h2v1H31zM35 26h3v1H35zM4 27h6v1H4zM31 27h8v1H31zM4 28h6v1H4zM18 28h1v1H18zM21 28h1v1H21zM31 28h8v1H31zM3 29h9v1H3zM27 29h1v1H27zM31 29h8v1H31zM3 30h10v1H3zM26 30h2v1H26zM30 30h9v1H30zM4 31h12v1H4zM23 31h5v1H23zM30 31h8v1H30zM6 32h11v1H6zM22 32h5v1H22zM29 32h7v1H29zM6 33h8v1H6zM15 33h4v1H15zM21 33h5v1H21zM28 33h8v1H28zM7 34h6v1H7zM16 34h7v1H16zM27 34h8v1H27zM11 35h2v1H11zM15 35h6v1H15zM26 35h7v1H26zM11 36h3v1H11zM16 36h4v1H16zM26 36h5v1H26zM16 37h2v1H16zM21 37h5v1H21zM27 37h2v1H27z"/>
  <path fill="#e6ebf5" d="M16 3h9v1H16zM14 4h4v1H14zM23 4h4v1H23zM13 5h2v1H13zM26 5h3v1H26zM12 6h1v1H12zM28 6h2v1H28zM11 7h1v1H11zM29 7h2v1H29zM10 8h1v1H10zM30 8h1v1H30zM9 9h1v1H9zM31 9h1v1H31zM8 10h2v1H8zM31 10h2v1H31zM8 11h1v1H8zM10 11h2v1H10zM28 11h1v1H28zM32 11h1v1H32zM7 12h2v1H7zM10 12h4v1H10zM15 12h2v1H15zM18 12h2v1H18zM21 12h2v1H21zM26 12h3v1H26zM32 12h2v1H32zM7 13h1v1H7zM9 13h4v1H9zM15 13h2v1H15zM18 13h2v1H18zM21 13h2v1H21zM26 13h3v1H26zM33 13h1v1H33zM5 14h2v1H5zM9 14h2v1H9zM28 14h1v1H28zM34 14h1v1H34zM5 15h2v1H5zM9 15h1v1H9zM14 15h1v1H14zM34 15h1v1H34zM14 16h1v1H14zM25 16h1v1H25zM34 16h1v1H34zM13 17h3v1H13zM25 17h1v1H25zM4 18h2v1H4zM14 18h3v1H14zM23 18h3v1H23zM35 18h1v1H35zM3 19h3v1H3zM13 19h5v1H13zM23 19h5v1H23zM34 19h4v1H34zM3 20h4v1H3zM16 20h4v1H16zM22 20h1v1H22zM34 20h4v1H34zM3 21h4v1H3zM8 21h1v1H8zM14 21h1v1H14zM17 21h4v1H17zM24 21h1v1H24zM34 21h4v1H34zM3 22h4v1H3zM8 22h1v1H8zM11 22h1v1H11zM13 22h2v1H13zM17 22h5v1H17zM24 22h2v1H24zM28 22h1v1H28zM34 22h4v1H34zM3 23h4v1H3zM8 23h1v1H8zM11 23h1v1H11zM16 23h7v1H16zM28 23h1v1H28zM34 23h4v1H34zM4 24h2v1H4zM8 24h1v1H8zM11 24h1v1H11zM13 24h1v1H13zM16 24h7v1H16zM24 24h1v1H24zM26 24h1v1H26zM28 24h3v1H28zM34 24h3v1H34zM4 25h2v1H4zM8 25h18v1H8zM27 25h4v1H27zM34 25h3v1H34zM9 26h22v1H9zM33 26h2v1H33zM10 27h21v1H10zM10 28h8v1H10zM19 28h2v1H19zM22 28h9v1H22zM12 29h15v1H12zM28 29h3v1H28zM13 30h13v1H13zM28 30h2v1H28zM16 31h7v1H16zM28 31h2v1H28zM17 32h5v1H17zM27 32h2v1H27zM14 33h1v1H14zM19 33h2v1H19zM26 33h2v1H26zM13 34h3v1H13zM23 34h4v1H23zM13 35h2v1H13zM21 35h5v1H21zM14 36h1v1H14zM20 36h6v1H20zM19 37h2v1H19z"/>
</svg>
