<?xml version="1.0" encoding="UTF-8"?>
<svg aria-label="Nous girl with headphones" role="img" viewBox="384 384 1280 1280" xmlns="http://www.w3.org/2000/svg">
  <defs>
    <linearGradient id="a" x1="35%" x2="65%" y1="20%" y2="80%">
      <stop stop-color="#2a3068" offset="0"/>
      <stop stop-color="#222858" offset=".55"/>
      <stop stop-color="#1c2248" offset="1"/>
    </linearGradient>
  </defs>
  <circle cx="1024" cy="1024" r="630" fill="#5888c0"/>
  <g transform="translate(0,-10)">
    <path d="M 1029.00 1407.07 C 1012.95 1408.24, 1002.05 1401.30, 989.00 1397.10 C 975.95 1392.90, 961.81 1388.37, 942.00 1379.06 C 922.19 1369.74, 879.13 1348.83, 856.93 1335.00 C 834.73 1321.17, 807.94 1298.60, 794.00 1286.85 C 780.06 1275.10, 773.30 1267.52, 764.00 1256.67 C 754.70 1245.83, 735.04 1214.65, 732.00 1214.55 C 728.96 1214.45, 738.67 1242.80, 743.77 1256.00 C 748.87 1269.20, 757.86 1288.66, 766.00 1302.54 C 774.14 1316.42, 786.80 1334.66, 798.00 1348.53 C 809.20 1362.40, 840.40 1388.59, 840.70 1395.00 C 841.00 1401.41, 811.20 1393.05, 800.00 1391.26 C 788.80 1389.47, 777.17 1386.40, 766.00 1383.06 C 754.83 1379.72, 736.51 1373.54, 725.56 1369.00 C 714.61 1364.46, 702.16 1358.20, 693.00 1352.80 C 683.84 1347.40, 672.31 1339.28, 664.51 1333.00 C 656.71 1326.72, 647.68 1318.22, 641.00 1310.95 C 634.32 1303.69, 626.30 1293.95, 620.00 1284.58 C 613.70 1275.22, 608.08 1251.15, 599.00 1248.51 C 589.92 1245.87, 570.71 1262.88, 559.48 1267.00 C 548.26 1271.12, 526.36 1281.44, 524.18 1276.00 C 522.01 1270.56, 539.64 1244.39, 545.00 1230.74 C 550.36 1217.09, 563.47 1195.16, 559.91 1185.00 C 556.34 1174.84, 530.74 1170.80, 521.22 1163.00 C 511.71 1155.20, 502.68 1143.66, 496.49 1133.00 C 490.31 1122.34, 483.74 1106.47, 480.00 1091.92 C 476.26 1077.37, 472.51 1052.34, 471.59 1036.00 C 470.67 1019.66, 471.70 996.50, 473.86 983.00 C 476.02 969.50, 482.27 954.57, 486.00 946.02 C 489.73 937.47, 494.16 931.70, 498.75 926.00 C 503.35 920.30, 511.17 912.54, 516.61 908.00 C 522.05 903.46, 527.91 899.33, 535.00 895.73 C 542.09 892.13, 558.05 896.26, 563.89 884.00 C 569.72 871.74, 569.68 832.45, 573.90 814.00 C 578.12 795.55, 584.48 777.41, 592.00 761.02 C 599.52 744.63, 613.20 720.46, 624.00 704.74 C 634.80 689.02, 647.65 672.00, 664.00 656.20 C 680.35 640.41, 716.35 611.78, 733.00 599.44 C 749.65 587.11, 762.40 580.83, 775.00 573.99 C 787.60 567.15, 797.50 561.07, 817.00 553.84 C 836.50 546.60, 884.90 531.17, 905.00 525.77 C 925.10 520.36, 936.45 519.61, 951.00 517.79 C 965.55 515.97, 987.45 514.24, 1002.00 513.65 C 1016.55 513.05, 1031.95 512.92, 1048.00 513.84 C 1064.05 514.76, 1086.95 515.84, 1109.00 519.76 C 1131.05 523.68, 1176.45 534.84, 1195.00 539.98 C 1213.55 545.11, 1219.20 548.01, 1232.70 554.00 C 1246.20 559.99, 1271.54 572.42, 1285.00 579.92 C 1298.46 587.42, 1311.00 595.81, 1322.40 604.00 C 1333.80 612.19, 1349.21 623.91, 1361.00 634.51 C 1372.79 645.10, 1389.22 660.46, 1401.00 674.63 C 1412.78 688.80, 1431.08 715.59, 1439.50 729.00 C 1447.92 742.41, 1452.67 753.80, 1457.14 764.00 C 1461.60 774.20, 1465.94 785.60, 1469.25 797.00 C 1472.55 808.40, 1476.97 826.98, 1479.18 840.00 C 1481.39 853.02, 1478.03 875.07, 1484.00 883.80 C 1489.97 892.53, 1508.65 891.50, 1519.00 898.18 C 1529.35 904.86, 1546.10 920.87, 1553.00 928.35 C 1559.90 935.82, 1562.03 941.98, 1565.03 948.00 C 1568.03 954.02, 1570.99 959.06, 1573.00 968.51 C 1575.01 977.96, 1577.77 998.33, 1578.42 1011.00 C 1579.06 1023.67, 1578.06 1042.65, 1577.29 1053.00 C 1576.51 1063.35, 1576.29 1068.84, 1573.24 1080.00 C 1570.20 1091.16, 1561.59 1117.02, 1557.00 1127.37 C 1552.41 1137.72, 1548.03 1142.82, 1542.63 1149.00 C 1537.23 1155.18, 1528.17 1163.74, 1521.00 1168.54 C 1513.83 1173.34, 1503.05 1178.27, 1494.80 1181.00 C 1486.55 1183.73, 1471.04 1180.31, 1466.00 1186.76 C 1460.96 1193.21, 1464.33 1211.22, 1461.18 1224.00 C 1458.03 1236.78, 1451.03 1259.00, 1445.00 1271.97 C 1438.97 1284.94, 1428.35 1300.96, 1421.00 1310.48 C 1413.65 1320.00, 1400.29 1331.93, 1396.00 1335.46 C 1391.71 1338.99, 1393.90 1341.03, 1392.40 1334.00 C 1390.90 1326.97, 1391.16 1289.81, 1386.00 1288.62 C 1380.84 1287.43, 1368.74 1315.21, 1358.00 1326.07 C 1347.26 1336.92, 1328.23 1352.46, 1314.39 1361.00 C 1300.54 1369.54, 1277.29 1378.47, 1265.68 1383.00 C 1254.07 1387.53, 1246.25 1389.30, 1237.00 1391.23 C 1227.75 1393.16, 1201.66 1404.01, 1204.00 1395.88 C 1206.34 1387.74, 1242.22 1351.30, 1252.57 1337.00 C 1262.92 1322.70, 1268.59 1309.54, 1273.00 1300.57 C 1277.41 1291.61, 1288.90 1273.64, 1282.00 1277.23 C 1275.10 1280.82, 1243.36 1312.56, 1227.00 1324.52 C 1210.64 1336.49, 1192.59 1347.29, 1172.94 1357.00 C 1153.29 1366.71, 1117.59 1381.73, 1096.00 1389.24 C 1074.41 1396.75, 1045.05 1405.89, 1029.00 1407.07 Z M 1027.35 1345.00 C 1042.05 1343.49, 1068.25 1332.83, 1088.00 1325.05 C 1107.75 1317.26, 1141.17 1302.42, 1159.00 1293.12 C 1176.83 1283.81, 1193.98 1272.57, 1206.88 1263.00 C 1219.78 1253.43, 1234.48 1240.77, 1245.00 1229.32 C 1255.52 1217.87, 1269.47 1199.14, 1277.00 1186.64 C 1284.53 1174.14, 1290.40 1160.05, 1295.22 1146.00 C 1300.03 1131.95, 1306.32 1108.60, 1309.10 1093.00 C 1311.89 1077.40, 1320.46 1054.60, 1313.79 1042.00 C 1307.11 1029.40, 1278.18 1019.35, 1264.60 1009.00 C 1251.03 998.65, 1235.38 984.75, 1223.29 973.00 C 1211.20 961.25, 1196.64 945.81, 1184.00 930.70 C 1171.36 915.58, 1146.20 860.17, 1139.00 872.25 C 1131.80 884.33, 1141.67 992.54, 1136.00 1011.25 C 1130.33 1029.96, 1111.73 1002.19, 1101.23 997.00 C 1090.73 991.81, 1076.53 983.44, 1066.00 976.64 C 1055.47 969.83, 1042.10 960.41, 1031.00 951.65 C 1019.90 942.88, 992.27 909.89, 992.00 918.19 C 991.73 926.49, 1023.82 993.05, 1029.22 1007.00 C 1034.62 1020.95, 1036.78 1014.21, 1028.00 1011.21 C 1019.22 1008.21, 988.37 996.63, 970.71 987.00 C 953.05 977.37, 927.20 960.82, 910.29 947.00 C 893.39 933.18, 871.84 910.72, 858.00 894.86 C 844.16 879.01, 825.63 842.02, 818.00 841.30 C 810.37 840.57, 811.47 875.19, 807.15 890.00 C 802.83 904.81, 795.55 925.51, 789.22 940.00 C 782.90 954.49, 773.99 972.20, 765.00 986.60 C 756.01 1001.00, 733.68 1019.89, 729.29 1036.00 C 724.89 1052.11, 732.30 1077.05, 735.70 1094.00 C 739.11 1110.95, 746.58 1134.90, 751.99 1149.00 C 757.40 1163.10, 765.23 1177.35, 771.76 1188.00 C 778.29 1198.65, 788.61 1211.82, 795.54 1220.00 C 802.48 1228.18, 809.53 1235.18, 818.00 1242.54 C 826.47 1249.89, 840.90 1261.43, 852.00 1269.02 C 863.10 1276.60, 879.07 1286.21, 892.00 1293.10 C 904.93 1300.00, 923.52 1308.70, 938.22 1315.00 C 952.92 1321.30, 976.63 1330.63, 990.00 1335.13 C 1003.37 1339.63, 1012.65 1346.51, 1027.35 1345.00 Z M 1423.28 866.00 C 1426.59 866.76, 1414.40 822.30, 1411.05 810.00 C 1407.71 797.70, 1405.18 793.00, 1400.99 784.00 C 1396.81 775.00, 1391.31 762.60, 1383.15 750.00 C 1374.99 737.40, 1356.23 711.70, 1346.60 700.00 C 1336.97 688.30, 1327.44 679.84, 1318.95 672.00 C 1310.46 664.16, 1302.77 656.73, 1290.00 647.73 C 1277.23 638.73, 1252.40 621.59, 1233.80 612.00 C 1215.20 602.41, 1186.37 590.43, 1166.00 583.81 C 1145.63 577.18, 1119.00 571.06, 1098.00 567.82 C 1077.00 564.59, 1048.50 562.25, 1026.00 562.26 C 1003.50 562.27, 969.75 564.64, 948.00 567.87 C 926.25 571.10, 900.65 577.50, 881.00 583.80 C 861.35 590.11, 835.74 600.27, 817.00 609.90 C 798.26 619.53, 772.34 635.98, 756.10 648.00 C 739.85 660.02, 721.33 676.73, 708.71 690.00 C 696.10 703.27, 682.04 720.55, 672.00 736.45 C 661.96 752.35, 647.80 782.27, 641.76 796.00 C 635.73 809.73, 634.20 817.80, 631.75 828.00 C 629.30 838.20, 626.30 858.23, 625.44 864.00 C 624.58 869.77, 621.12 875.36, 626.00 866.48 C 630.88 857.60, 648.10 821.05, 658.00 804.79 C 667.90 788.53, 680.88 771.23, 692.00 758.06 C 703.12 744.89, 718.03 729.31, 732.15 717.00 C 746.28 704.69, 769.11 686.98, 786.19 676.00 C 803.26 665.02, 828.78 651.62, 846.00 643.80 C 863.22 635.98, 883.15 628.96, 901.00 623.87 C 918.85 618.79, 945.80 612.60, 965.00 609.88 C 984.20 607.17, 1009.50 605.52, 1029.00 605.80 C 1048.50 606.07, 1076.10 608.70, 1095.00 611.72 C 1113.90 614.74, 1137.67 620.50, 1155.00 625.94 C 1172.33 631.39, 1193.81 639.89, 1210.52 648.00 C 1227.23 656.11, 1251.79 670.49, 1266.41 680.00 C 1281.03 689.51, 1295.01 699.95, 1308.00 711.40 C 1320.99 722.85, 1340.85 742.30, 1353.00 756.33 C 1365.15 770.36, 1378.46 788.46, 1389.00 804.91 C 1399.54 821.36, 1419.97 865.24, 1423.28 866.00 Z M 1448.45 1093.00 C 1454.19 1091.20, 1474.31 1083.50, 1484.45 1079.00 C 1494.59 1074.50, 1510.87 1066.35, 1516.05 1063.00 C 1521.23 1059.65, 1517.90 1061.91, 1519.00 1056.66 C 1520.10 1051.41, 1522.38 1041.60, 1523.35 1028.00 C 1524.32 1014.40, 1525.60 978.30, 1525.48 966.00 C 1525.37 953.70, 1524.40 950.80, 1522.57 946.00 C 1520.75 941.20, 1516.47 937.00, 1513.31 934.00 C 1510.14 931.00, 1506.31 928.41, 1501.46 926.00 C 1496.62 923.59, 1486.92 919.66, 1481.00 917.96 C 1475.08 916.26, 1465.25 914.68, 1462.00 914.68 C 1458.75 914.69, 1460.09 902.95, 1459.36 918.00 C 1458.64 933.05, 1458.10 994.60, 1457.17 1015.00 C 1456.24 1035.40, 1454.80 1042.60, 1453.16 1054.00 C 1451.52 1065.40, 1446.93 1085.15, 1446.22 1091.00 C 1445.52 1096.85, 1442.72 1094.80, 1448.45 1093.00 Z M 603.25 1093.00 C 606.02 1083.10, 593.91 1033.80, 591.85 1017.00 C 589.79 1000.20, 589.90 995.85, 589.54 981.00 C 589.18 966.15, 589.99 927.96, 589.46 918.00 C 588.93 908.04, 589.22 914.58, 586.00 914.57 C 582.78 914.56, 573.17 916.52, 568.00 917.94 C 562.83 919.35, 556.06 921.89, 551.56 924.00 C 547.06 926.11, 541.53 929.23, 538.00 932.03 C 534.47 934.83, 530.16 938.94, 528.00 942.69 C 525.84 946.43, 523.92 945.25, 523.58 957.00 C 523.24 968.75, 524.83 1006.45, 525.76 1021.00 C 526.69 1035.55, 528.60 1047.70, 529.79 1054.00 C 530.97 1060.30, 527.14 1058.65, 533.68 1063.00 C 540.22 1067.35, 562.94 1078.50, 573.37 1083.00 C 583.81 1087.50, 600.48 1102.90, 603.25 1093.00 Z M 1108.00 1103.32 C 1100.65 1106.50, 1105.48 1103.36, 1105.00 1103.01 C 1104.52 1102.66, 1103.73 1103.93, 1104.78 1101.00 C 1105.83 1098.07, 1107.87 1090.21, 1112.00 1083.46 C 1116.13 1076.71, 1124.98 1063.42, 1132.30 1056.00 C 1139.62 1048.58, 1152.43 1038.81, 1160.79 1034.00 C 1169.14 1029.19, 1180.92 1025.69, 1188.00 1023.91 C 1195.08 1022.13, 1203.05 1022.12, 1208.00 1022.11 C 1212.95 1022.09, 1216.20 1022.63, 1221.00 1023.81 C 1225.80 1024.99, 1234.15 1027.32, 1240.00 1029.96 C 1245.85 1032.60, 1253.62 1036.60, 1260.00 1041.41 C 1266.38 1046.22, 1283.30 1053.87, 1282.55 1062.00 C 1281.80 1070.13, 1262.43 1092.34, 1255.00 1095.62 C 1247.57 1098.91, 1238.87 1086.54, 1233.00 1083.90 C 1227.13 1081.25, 1220.25 1079.24, 1215.90 1078.00 C 1211.55 1076.76, 1209.23 1076.00, 1204.00 1075.64 C 1198.77 1075.28, 1188.50 1074.65, 1181.00 1075.58 C 1173.50 1076.51, 1164.95 1077.67, 1154.00 1081.83 C 1143.05 1085.99, 1115.35 1100.14, 1108.00 1103.32 Z M 941.00 1103.15 C 935.30 1103.41, 904.10 1086.09, 893.00 1081.95 C 881.90 1077.81, 874.05 1076.50, 867.00 1075.55 C 859.95 1074.60, 850.95 1075.27, 846.00 1075.62 C 841.05 1075.98, 837.77 1076.97, 834.00 1077.93 C 830.23 1078.88, 826.86 1079.30, 820.86 1082.00 C 814.86 1084.70, 799.73 1095.47, 794.00 1095.92 C 788.27 1096.37, 787.02 1090.09, 782.66 1085.00 C 778.30 1079.91, 764.27 1068.62, 764.92 1062.00 C 765.57 1055.38, 780.10 1045.97, 787.00 1040.87 C 793.90 1035.77, 803.39 1030.78, 810.89 1028.00 C 818.39 1025.22, 829.93 1022.93, 837.00 1022.31 C 844.07 1021.69, 850.95 1022.10, 858.00 1023.86 C 865.05 1025.62, 875.79 1029.21, 884.00 1034.03 C 892.21 1038.85, 905.68 1049.07, 912.73 1056.00 C 919.78 1062.93, 926.76 1073.17, 931.00 1080.24 C 935.24 1087.31, 946.70 1102.89, 941.00 1103.15 Z" fill="url(#a)" fill-rule="evenodd"/>
  </g>
</svg>
