<svg xmlns="http://www.w3.org/2000/svg" viewBox="0 0 370 238">
  <path d="M 207.0 159.0 C 204.3 158.5 188.3 155.0 179.0 156.0 C 169.7 157.0 154.7 162.3 151.0 165.0 C 147.3 167.7 154.7 170.3 157.0 172.0 C 159.3 173.7 158.7 174.5 165.0 175.0 C 171.3 175.5 190.3 175.7 195.0 175.0 C 199.7 174.3 195.7 172.5 193.0 171.0 C 190.3 169.5 178.7 168.0 179.0 166.0 C 179.3 164.0 190.3 160.2 195.0 159.0 Z M 359.0 109.0 C 354.8 105.3 341.8 95.2 334.0 92.0 C 326.2 88.8 317.7 89.7 312.0 90.0 C 306.3 90.3 307.0 90.0 300.0 94.0 C 293.0 98.0 279.2 109.5 270.0 114.0 C 260.8 118.5 261.7 120.5 245.0 121.0 C 228.3 121.5 186.7 117.0 170.0 117.0 C 153.3 117.0 154.0 118.7 145.0 121.0 C 136.0 123.3 125.3 128.3 116.0 131.0 C 106.7 133.7 102.8 135.7 89.0 137.0 C 75.2 138.3 46.2 139.3 33.0 139.0 C 19.8 138.7 13.8 134.8 10.0 135.0 C 6.2 135.2 6.8 136.7 10.0 140.0 C 13.2 143.3 22.8 151.5 29.0 155.0 C 35.2 158.5 38.0 160.3 47.0 161.0 C 56.0 161.7 74.2 160.3 83.0 159.0 C 91.8 157.7 99.0 151.7 100.0 153.0 C 101.0 154.3 90.8 163.8 89.0 167.0 C 87.2 170.2 88.2 170.7 89.0 172.0 C 89.8 173.3 90.0 174.5 94.0 175.0 C 98.0 175.5 110.0 175.5 113.0 175.0 C 116.0 174.5 113.0 172.8 112.0 172.0 C 111.0 171.2 107.8 170.8 107.0 170.0 C 106.2 169.2 106.3 168.0 107.0 167.0 C 107.7 166.0 106.8 164.5 111.0 164.0 C 115.2 163.5 123.7 165.7 132.0 164.0 C 140.3 162.3 151.7 156.3 161.0 154.0 C 170.3 151.7 177.2 149.7 188.0 150.0 C 198.8 150.3 217.0 153.3 226.0 156.0 C 235.0 158.7 236.2 163.0 242.0 166.0 C 247.8 169.0 253.3 172.5 261.0 174.0 C 268.7 175.5 283.7 175.3 288.0 175.0 C 292.3 174.7 292.3 175.2 287.0 172.0 C 281.7 168.8 259.5 159.2 256.0 156.0 C 252.5 152.8 261.8 155.0 266.0 153.0 C 270.2 151.0 281.3 144.8 281.0 144.0 C 280.7 143.2 268.3 147.5 264.0 148.0 C 259.7 148.5 253.0 148.3 255.0 147.0 C 257.0 145.7 270.2 142.7 276.0 140.0 C 281.8 137.3 283.2 134.5 290.0 131.0 C 296.8 127.5 306.7 121.3 317.0 119.0 C 327.3 116.7 346.0 117.0 352.0 117.0 C 358.0 117.0 353.7 118.2 353.0 119.0 C 352.3 119.8 352.8 120.5 348.0 122.0 C 343.2 123.5 336.2 121.8 324.0 128.0 C 311.8 134.2 277.8 151.2 275.0 159.0 C 272.2 166.8 298.2 172.3 307.0 175.0 C 315.8 177.7 324.8 175.7 328.0 175.0 C 331.2 174.3 328.8 172.7 326.0 171.0 C 323.2 169.3 315.8 167.8 311.0 165.0 C 306.2 162.2 294.2 159.8 297.0 154.0 C 299.8 148.2 318.3 135.8 328.0 130.0 C 337.7 124.2 349.8 121.7 355.0 119.0 C 360.2 116.3 358.3 115.7 359.0 114.0 Z M 129.0 132.0 C 125.0 135.0 110.7 145.0 102.0 149.0 C 93.3 153.0 84.5 155.0 77.0 156.0 C 69.5 157.0 62.8 156.7 57.0 155.0 C 51.2 153.3 44.3 147.8 42.0 146.0 C 39.7 144.2 36.2 144.3 43.0 144.0 C 49.8 143.7 69.2 146.2 83.0 144.0 C 96.8 141.8 118.3 133.0 126.0 131.0 Z M 303.0 101.0 C 302.2 98.7 304.0 95.2 306.0 94.0 C 308.0 92.8 312.3 93.2 315.0 94.0 C 317.7 94.8 323.0 98.3 322.0 99.0 C 321.0 99.7 310.8 96.5 309.0 98.0 C 307.2 99.5 312.0 107.5 311.0 108.0 Z" fill="black" fill-rule="evenodd"/>
  <path d="M 335.5 104.0 Q 340.0 99.5 344.5 104.0 Q 340.0 108.5 335.5 104.0 Z" fill="white"/>
</svg>
