<svg xmlns="http://www.w3.org/2000/svg" viewBox="0 0 600 608" shape-rendering="crispEdges">
<g transform="translate(600 0) scale(-1 1)" fill="#5cc8e6" fill-rule="evenodd" stroke="none">
  <path d="M 154 382 L 151 382 L 151 388 L 153 387 Z"/>
  <path d="M 142 330 L 154 339 L 151 333 Z"/>
  <path d="M 195 280 L 197 283 L 197 280 Z"/>
  <path d="M 189 260 L 189 262 L 194 260 L 196 261 L 191 267 L 194 269 L 192 273 L 194 272 L 195 276 L 207 263 L 208 264 L 206 275 L 210 277 L 208 279 L 209 282 L 217 289 L 228 288 L 235 280 L 235 277 L 233 276 L 236 274 L 237 269 L 247 276 L 246 281 L 241 286 L 227 292 L 214 293 L 198 288 L 193 289 L 201 291 L 201 295 L 205 294 L 206 296 L 209 295 L 210 297 L 212 295 L 213 297 L 217 295 L 219 298 L 222 295 L 224 297 L 227 295 L 233 297 L 234 294 L 240 295 L 238 292 L 239 291 L 246 292 L 243 289 L 250 288 L 248 286 L 253 285 L 256 282 L 255 280 L 259 278 L 256 276 L 266 272 L 259 270 L 262 267 L 255 269 L 253 265 L 235 256 L 238 255 L 243 258 L 244 257 L 223 248 L 206 248 L 199 250 Z M 193 268 L 194 267 L 195 268 L 194 269 Z M 233 255 L 234 254 L 235 254 L 236 255 L 235 256 L 234 256 Z M 224 252 L 228 251 L 234 254 L 231 255 Z M 213 250 L 220 249 L 225 251 L 220 252 Z"/>
  <path d="M 0 0 L 0 607 L 599 607 L 599 0 Z M 222 602 L 223 601 L 224 602 L 223 603 Z M 223 600 L 224 599 L 225 601 L 224 602 Z M 215 592 L 216 594 L 213 602 L 206 603 L 205 602 L 209 595 Z M 209 593 L 201 603 L 188 602 L 196 599 L 207 592 Z M 246 572 L 247 575 L 243 581 L 225 600 L 224 598 L 228 592 Z M 334 571 L 335 570 L 336 571 L 335 572 Z M 272 569 L 273 568 L 274 569 L 273 570 Z M 519 552 L 520 551 L 521 552 L 520 553 Z M 349 534 L 325 557 L 314 573 L 285 603 L 240 602 L 260 579 L 271 569 L 273 570 L 273 572 L 269 578 L 340 536 L 347 533 Z M 384 529 L 375 533 L 358 544 L 345 557 L 336 570 L 334 566 L 327 579 L 321 603 L 302 602 L 314 576 L 325 560 L 335 549 L 363 533 L 380 528 Z M 384 528 L 385 527 L 386 527 L 387 528 L 386 529 L 385 529 Z M 497 495 L 498 494 L 499 495 L 498 496 Z M 144 489 L 143 499 L 138 516 L 130 531 L 120 541 L 112 545 L 98 545 L 88 538 L 86 535 L 87 534 L 109 533 L 121 527 L 132 514 L 137 505 L 142 489 Z M 143 486 L 144 485 L 145 487 L 144 488 Z M 286 483 L 292 495 L 304 508 L 322 521 L 332 526 L 309 542 L 263 563 L 259 551 L 237 516 L 249 514 L 258 510 Z M 350 437 L 355 456 L 354 461 L 348 467 L 340 472 L 328 471 L 324 467 L 321 457 L 327 451 Z M 324 434 L 325 433 L 326 434 L 325 435 Z M 474 380 L 475 379 L 476 380 L 476 381 L 476 382 L 476 383 L 476 384 L 475 385 L 474 384 L 474 383 L 474 382 L 474 381 Z M 441 379 L 442 378 L 443 379 L 443 380 L 443 381 L 443 382 L 443 383 L 443 384 L 443 385 L 443 386 L 443 387 L 443 388 L 443 389 L 443 390 L 443 391 L 443 392 L 442 393 L 441 392 L 441 391 L 441 390 L 441 389 L 441 388 L 441 387 L 441 386 L 441 385 L 441 384 L 441 383 L 441 382 L 441 381 L 441 380 Z M 344 378 L 346 387 L 346 404 L 348 420 L 326 434 L 325 432 Z M 509 377 L 517 395 L 524 417 L 526 430 L 526 444 L 524 456 L 515 477 L 507 488 L 499 495 L 498 493 L 507 470 L 513 434 L 513 406 L 510 385 L 508 380 Z M 141 378 L 142 377 L 143 378 L 142 379 Z M 507 375 L 508 374 L 509 376 L 508 377 Z M 150 375 L 151 374 L 152 374 L 153 375 L 152 376 L 151 376 Z M 473 374 L 474 373 L 475 374 L 475 375 L 475 376 L 475 377 L 475 378 L 474 379 L 473 378 L 473 377 L 473 376 L 473 375 Z M 472 368 L 473 367 L 474 368 L 474 369 L 474 370 L 474 371 L 473 372 L 472 371 L 472 370 L 472 369 Z M 146 368 L 151 366 L 158 369 L 155 371 L 150 371 Z M 471 361 L 472 360 L 473 361 L 473 362 L 473 363 L 473 364 L 473 365 L 473 366 L 472 367 L 471 366 L 471 365 L 471 364 L 471 363 L 471 362 Z M 470 351 L 472 356 L 471 361 L 469 356 Z M 123 314 L 124 313 L 125 314 L 124 315 Z M 125 308 L 127 312 L 125 314 Z M 127 281 L 129 282 L 129 288 L 132 290 L 132 297 L 137 303 L 132 306 L 130 306 L 127 303 L 125 298 L 125 283 Z M 359 274 L 365 269 L 372 266 L 387 266 L 394 269 L 401 275 L 393 277 L 384 273 L 374 273 L 367 276 Z M 84 267 L 85 266 L 86 268 L 85 269 Z M 83 265 L 84 264 L 85 266 L 84 267 Z M 114 263 L 122 258 L 131 258 L 131 260 L 127 261 L 141 270 L 139 271 L 136 269 L 125 269 L 123 271 L 133 270 L 143 273 L 147 281 L 146 282 L 139 275 L 132 272 L 126 272 L 120 275 L 117 272 Z M 140 220 L 149 233 L 156 240 L 165 246 L 186 241 L 187 242 L 181 248 L 178 255 L 187 252 L 204 241 L 221 235 L 229 244 L 274 244 L 275 232 L 278 243 L 280 245 L 298 247 L 302 251 L 302 291 L 300 310 L 286 383 L 280 425 L 279 451 L 282 468 L 268 481 L 253 458 L 237 442 L 225 441 L 192 446 L 175 446 L 164 442 L 154 430 L 132 389 L 124 369 L 121 357 L 120 339 L 121 328 L 123 326 L 127 333 L 139 345 L 140 351 L 135 359 L 135 365 L 142 376 L 140 377 L 142 388 L 149 396 L 154 398 L 154 396 L 152 395 L 162 391 L 148 391 L 145 388 L 145 384 L 149 380 L 172 380 L 174 382 L 169 386 L 184 381 L 183 376 L 177 377 L 160 367 L 154 365 L 148 365 L 145 367 L 139 360 L 142 353 L 142 346 L 140 342 L 130 333 L 125 323 L 125 318 L 134 311 L 144 299 L 149 284 L 148 277 L 145 271 L 138 264 L 131 260 L 135 258 L 129 253 L 139 249 L 151 247 L 139 223 Z M 138 220 L 139 219 L 140 220 L 139 221 Z M 345 210 L 346 209 L 347 210 L 346 211 Z M 429 208 L 437 230 L 451 281 L 464 320 L 470 346 L 469 352 L 461 318 L 453 296 L 436 235 L 428 212 Z M 346 208 L 347 207 L 348 208 L 347 209 Z M 398 205 L 399 204 L 400 205 L 399 206 Z M 397 204 L 398 203 L 399 204 L 398 205 Z M 426 199 L 429 206 L 428 209 L 425 203 Z M 356 196 L 356 200 L 348 208 L 347 206 Z M 423 191 L 426 197 L 425 200 L 422 194 Z M 421 189 L 422 188 L 423 189 L 423 190 L 423 191 L 422 192 L 421 191 L 421 190 Z M 420 183 L 422 186 L 421 189 L 419 186 Z M 61 184 L 62 183 L 63 184 L 62 185 Z M 418 181 L 419 180 L 420 181 L 420 182 L 420 183 L 419 184 L 418 183 L 418 182 Z M 80 181 L 81 180 L 82 181 L 81 182 Z M 62 181 L 63 180 L 64 182 L 63 183 Z M 417 179 L 418 178 L 419 180 L 418 181 Z M 194 177 L 202 199 L 212 219 L 220 231 L 219 233 L 212 233 L 205 221 L 197 198 L 193 182 Z M 63 178 L 64 177 L 65 179 L 64 180 Z M 487 177 L 488 176 L 489 177 L 488 178 Z M 81 177 L 82 176 L 83 177 L 83 178 L 83 179 L 82 180 L 81 179 L 81 178 Z M 416 176 L 417 175 L 418 176 L 418 177 L 418 178 L 417 179 L 416 178 L 416 177 Z M 192 175 L 193 174 L 194 176 L 193 177 Z M 64 175 L 65 174 L 66 175 L 66 176 L 66 177 L 65 178 L 64 177 L 64 176 Z M 415 174 L 416 173 L 417 175 L 416 176 Z M 82 174 L 83 173 L 84 174 L 84 175 L 84 176 L 83 177 L 82 176 L 82 175 Z M 486 173 L 487 172 L 488 174 L 487 175 Z M 485 171 L 486 170 L 487 171 L 486 172 Z M 414 171 L 415 170 L 416 171 L 416 172 L 416 173 L 415 174 L 414 173 L 414 172 Z M 83 171 L 84 170 L 85 171 L 85 172 L 85 173 L 84 174 L 83 173 L 83 172 Z M 413 169 L 414 168 L 415 170 L 414 171 Z M 84 169 L 85 168 L 86 170 L 85 171 Z M 484 167 L 485 166 L 486 168 L 485 169 Z M 412 167 L 413 166 L 414 167 L 413 168 Z M 483 164 L 484 163 L 485 165 L 484 166 Z M 411 164 L 412 163 L 413 165 L 412 166 Z M 108 163 L 109 162 L 110 163 L 109 164 Z M 92 163 L 93 162 L 94 163 L 93 164 Z M 482 162 L 483 161 L 484 162 L 483 163 Z M 451 162 L 452 161 L 453 162 L 452 163 Z M 443 162 L 444 161 L 445 162 L 444 163 Z M 410 162 L 411 161 L 412 163 L 411 164 Z M 270 162 L 271 161 L 272 163 L 271 164 Z M 254 162 L 255 161 L 256 163 L 255 164 Z M 450 160 L 451 159 L 452 160 L 451 161 Z M 442 160 L 443 159 L 444 160 L 443 161 Z M 409 160 L 410 159 L 411 160 L 410 161 Z M 242 160 L 243 159 L 244 160 L 243 161 Z M 481 159 L 482 158 L 483 160 L 482 161 Z M 449 157 L 450 156 L 451 158 L 450 159 Z M 441 157 L 442 156 L 443 158 L 442 159 Z M 408 157 L 409 156 L 410 158 L 409 159 Z M 240 157 L 242 156 L 243 158 L 242 159 Z M 220 157 L 221 156 L 222 158 L 221 159 Z M 480 156 L 481 155 L 482 157 L 481 158 Z M 448 155 L 449 154 L 450 155 L 449 156 Z M 440 155 L 441 154 L 442 156 L 441 157 Z M 407 155 L 408 154 L 409 156 L 408 157 Z M 479 153 L 480 152 L 481 154 L 480 155 Z M 439 153 L 440 152 L 441 154 L 440 155 Z M 406 153 L 407 152 L 408 154 L 407 155 Z M 447 152 L 448 151 L 449 153 L 448 154 Z M 478 151 L 479 150 L 480 151 L 479 152 Z M 405 151 L 406 150 L 407 152 L 406 153 Z M 446 150 L 447 149 L 448 151 L 447 152 Z M 404 149 L 405 148 L 406 150 L 405 151 Z M 477 148 L 478 147 L 479 149 L 478 150 Z M 445 148 L 446 147 L 447 149 L 446 150 Z M 438 147 L 440 150 L 439 153 L 437 150 Z M 458 147 L 459 146 L 460 147 L 459 148 Z M 403 147 L 404 146 L 405 148 L 404 149 Z M 397 147 L 398 146 L 399 147 L 398 148 Z M 476 146 L 477 145 L 478 147 L 477 148 Z M 436 146 L 437 145 L 438 147 L 437 148 Z M 457 145 L 458 144 L 459 145 L 458 146 Z M 396 145 L 397 144 L 398 146 L 397 147 Z M 475 143 L 476 142 L 477 144 L 476 145 Z M 113 143 L 114 142 L 115 143 L 114 144 Z M 456 142 L 457 141 L 458 143 L 457 144 Z M 474 141 L 475 140 L 476 141 L 475 142 Z M 455 140 L 456 139 L 457 141 L 456 142 Z M 473 139 L 474 138 L 475 139 L 474 140 Z M 120 139 L 121 138 L 122 140 L 121 141 Z M 454 138 L 455 137 L 456 139 L 455 140 Z M 288 137 L 289 136 L 290 138 L 289 139 Z M 163 137 L 164 136 L 165 137 L 165 138 L 165 139 L 165 140 L 165 141 L 164 142 L 163 141 L 163 140 L 163 139 L 163 138 Z M 121 137 L 122 136 L 123 138 L 122 139 Z M 472 136 L 473 135 L 474 137 L 473 138 Z M 300 135 L 301 134 L 302 135 L 301 136 Z M 88 135 L 95 136 L 97 134 L 98 137 L 101 138 L 105 136 L 106 138 L 103 145 L 114 145 L 102 172 L 102 165 L 100 165 L 96 170 L 95 169 L 95 163 L 93 162 L 94 155 L 92 156 L 86 169 L 85 165 L 87 161 L 75 161 L 78 152 Z M 471 134 L 472 133 L 473 134 L 472 135 Z M 164 134 L 165 133 L 166 134 L 165 135 Z M 124 133 L 125 135 L 123 137 L 122 135 Z M 107 133 L 108 135 L 106 137 L 105 135 Z M 470 132 L 471 131 L 472 132 L 471 133 Z M 445 132 L 446 131 L 447 133 L 446 134 Z M 124 132 L 125 131 L 126 133 L 125 134 Z M 107 132 L 108 131 L 109 133 L 108 134 Z M 99 131 L 100 133 L 98 135 L 97 133 Z M 188 131 L 196 130 L 214 133 L 215 131 L 221 156 L 220 157 L 216 151 L 197 151 L 194 149 L 193 152 L 188 139 Z M 125 131 L 126 130 L 127 131 L 126 132 Z M 108 131 L 109 130 L 110 131 L 109 132 Z M 99 131 L 100 130 L 101 131 L 100 132 Z M 469 130 L 470 129 L 471 130 L 470 131 Z M 109 130 L 110 129 L 111 130 L 110 131 Z M 126 129 L 127 128 L 128 129 L 127 130 Z M 100 129 L 101 128 L 102 130 L 101 131 Z M 110 128 L 111 127 L 112 128 L 111 129 Z M 101 128 L 102 127 L 103 128 L 102 129 Z M 468 127 L 469 126 L 470 128 L 469 129 Z M 302 127 L 303 126 L 304 127 L 303 128 Z M 111 127 L 112 126 L 113 127 L 112 128 Z M 102 126 L 103 125 L 104 127 L 103 128 Z M 467 125 L 468 124 L 469 126 L 468 127 Z M 451 125 L 452 124 L 453 125 L 452 126 Z M 245 125 L 246 124 L 247 125 L 246 126 Z M 103 125 L 104 124 L 105 125 L 104 126 Z M 104 124 L 105 123 L 106 124 L 105 125 Z M 466 123 L 467 122 L 468 124 L 467 125 Z M 465 122 L 466 121 L 467 122 L 466 123 Z M 185 121 L 185 158 L 182 151 L 180 157 L 177 151 L 165 154 L 162 157 L 160 155 L 146 158 L 141 153 L 140 150 L 146 135 L 158 141 L 163 141 L 164 143 L 175 141 L 178 138 L 183 121 Z M 464 120 L 465 119 L 466 120 L 465 121 Z M 463 118 L 464 117 L 465 119 L 464 120 Z M 462 116 L 463 115 L 464 117 L 463 118 Z M 98 115 L 99 117 L 82 141 L 66 175 L 65 172 L 70 160 L 67 159 L 68 156 L 66 154 L 72 141 Z M 461 115 L 462 114 L 463 115 L 462 116 Z M 418 115 L 419 114 L 420 115 L 419 116 Z M 98 115 L 99 114 L 100 115 L 99 116 Z M 417 114 L 418 113 L 419 114 L 418 115 Z M 151 113 L 152 115 L 140 141 L 132 167 L 130 167 L 129 153 L 120 156 L 116 163 L 110 163 L 109 160 L 120 140 L 121 143 L 117 152 L 124 149 L 131 143 L 141 126 Z M 99 114 L 100 113 L 101 114 L 100 115 Z M 460 113 L 461 112 L 462 114 L 461 115 Z M 385 113 L 386 112 L 387 113 L 386 114 Z M 100 113 L 101 112 L 102 113 L 101 114 Z M 416 112 L 417 111 L 418 112 L 417 113 Z M 151 112 L 152 111 L 153 113 L 152 114 Z M 415 111 L 416 110 L 417 111 L 416 112 Z M 152 111 L 153 110 L 154 111 L 153 112 Z M 458 110 L 459 109 L 461 112 L 460 113 Z M 414 110 L 415 109 L 416 110 L 415 111 Z M 438 108 L 439 107 L 440 108 L 439 109 Z M 413 108 L 414 107 L 415 108 L 414 109 Z M 456 107 L 457 106 L 459 109 L 458 110 Z M 437 106 L 438 105 L 439 107 L 438 108 Z M 250 105 L 266 126 L 278 153 L 277 155 L 271 150 L 270 162 L 266 150 L 264 148 L 263 164 L 255 150 L 254 161 L 251 154 L 248 154 L 243 157 L 241 155 L 239 157 L 234 154 L 224 152 L 221 143 L 222 140 L 234 136 L 236 132 L 238 137 L 240 137 L 246 131 L 247 126 L 250 125 L 251 130 L 253 132 L 253 120 L 249 108 Z M 436 105 L 437 104 L 438 105 L 437 106 Z M 248 104 L 249 103 L 250 105 L 249 106 Z M 453 103 L 454 102 L 457 106 L 456 107 Z M 435 103 L 436 102 L 437 104 L 436 105 Z M 247 103 L 248 102 L 249 103 L 248 104 Z M 434 102 L 435 101 L 436 102 L 435 103 Z M 433 101 L 434 100 L 435 101 L 434 102 Z M 425 99 L 426 98 L 429 102 L 428 103 Z M 424 98 L 425 97 L 426 98 L 425 99 Z M 423 97 L 424 96 L 425 97 L 424 98 Z M 267 122 L 274 114 L 273 109 L 276 107 L 282 107 L 280 98 L 281 96 L 288 105 L 297 100 L 299 96 L 308 106 L 318 124 L 326 124 L 328 126 L 332 137 L 331 138 L 324 134 L 321 135 L 316 125 L 304 109 L 301 114 L 301 122 L 303 126 L 302 127 L 299 125 L 301 132 L 300 134 L 297 130 L 295 132 L 293 130 L 290 131 L 288 137 L 285 133 L 274 133 Z M 422 96 L 423 95 L 424 96 L 423 97 Z M 297 96 L 298 95 L 299 96 L 298 97 Z M 279 96 L 280 95 L 281 96 L 280 97 Z M 421 95 L 422 94 L 423 95 L 422 96 Z M 454 101 L 453 103 L 451 102 L 454 109 L 452 123 L 451 124 L 449 121 L 448 123 L 455 137 L 454 138 L 447 127 L 445 126 L 446 131 L 445 132 L 443 130 L 442 132 L 443 139 L 446 145 L 445 148 L 432 130 L 431 131 L 437 143 L 436 146 L 428 131 L 421 138 L 397 129 L 403 142 L 403 147 L 398 140 L 396 145 L 387 136 L 380 133 L 375 134 L 371 128 L 379 127 L 387 129 L 387 114 L 393 124 L 401 125 L 408 128 L 414 128 L 421 121 L 419 116 L 422 116 L 424 111 L 432 112 L 428 104 L 429 102 L 437 110 L 439 110 L 440 108 L 444 113 L 444 94 L 442 91 L 443 89 L 451 97 L 449 100 L 451 98 Z M 440 87 L 441 86 L 443 89 L 442 90 Z M 439 86 L 440 85 L 441 86 L 440 87 Z M 191 47 L 192 46 L 193 46 L 194 47 L 193 48 L 192 48 Z M 194 46 L 195 45 L 196 45 L 197 45 L 198 46 L 197 47 L 196 47 L 195 47 Z M 197 45 L 209 40 L 231 34 L 264 33 L 282 37 L 295 42 L 317 56 L 328 66 L 346 87 L 357 104 L 368 126 L 376 147 L 383 176 L 383 181 L 376 186 L 376 190 L 390 197 L 398 203 L 396 204 L 375 193 L 373 184 L 380 179 L 380 174 L 377 169 L 357 171 L 351 174 L 351 183 L 359 185 L 358 196 L 356 196 L 356 190 L 347 185 L 344 165 L 338 144 L 323 110 L 309 90 L 290 71 L 270 57 L 258 51 L 243 46 L 228 44 L 213 44 L 201 46 Z M 7 6 L 595 7 L 594 603 L 332 602 L 335 592 L 343 582 L 381 544 L 396 536 L 421 533 L 443 536 L 456 542 L 481 566 L 495 585 L 497 593 L 499 595 L 502 595 L 504 593 L 502 582 L 497 571 L 492 564 L 477 549 L 458 536 L 445 530 L 434 528 L 434 526 L 460 530 L 476 539 L 493 557 L 502 573 L 507 593 L 512 593 L 512 580 L 516 572 L 519 569 L 534 562 L 548 553 L 564 538 L 570 530 L 578 515 L 582 503 L 585 486 L 585 475 L 583 461 L 579 448 L 572 436 L 562 425 L 568 437 L 571 451 L 572 465 L 569 485 L 559 509 L 547 528 L 529 547 L 521 552 L 520 551 L 527 544 L 537 530 L 543 519 L 549 503 L 554 474 L 553 439 L 546 402 L 532 355 L 519 298 L 516 290 L 498 198 L 485 158 L 473 129 L 458 102 L 443 83 L 418 60 L 393 44 L 367 33 L 334 24 L 311 21 L 281 22 L 237 30 L 203 40 L 174 52 L 141 70 L 104 97 L 86 115 L 69 140 L 58 163 L 50 188 L 46 217 L 47 236 L 50 249 L 57 264 L 70 279 L 85 289 L 102 294 L 95 288 L 90 281 L 85 271 L 86 268 L 100 284 L 110 291 L 99 399 L 90 446 L 84 458 L 77 465 L 72 467 L 60 467 L 53 464 L 45 456 L 40 444 L 39 428 L 42 416 L 46 408 L 35 420 L 29 432 L 27 443 L 27 460 L 30 472 L 37 484 L 47 493 L 63 499 L 78 498 L 92 492 L 98 488 L 111 475 L 119 462 L 120 465 L 117 475 L 108 491 L 97 502 L 82 509 L 64 508 L 51 503 L 41 496 L 33 487 L 28 477 L 25 461 L 23 458 L 23 474 L 25 485 L 31 501 L 39 512 L 58 526 L 79 533 L 83 548 L 86 553 L 94 561 L 102 565 L 109 567 L 124 567 L 131 565 L 141 559 L 150 550 L 155 542 L 156 545 L 150 565 L 144 578 L 134 592 L 121 603 L 6 602 Z"/>
</g>
</svg>
