<svg xmlns="http://www.w3.org/2000/svg" viewBox="0 0 200 200">
  <circle cx="100" cy="100" r="96" fill="#f5b731" />
  <g transform="translate(28 50.885) scale(0.372093)">
    <path d="M 339.0 36.0 C 338.0 32.3 338.2 33.5 337.0 32.0 C 335.8 30.5 334.5 28.3 332.0 27.0 C 329.5 25.7 326.3 24.3 322.0 24.0 C 317.7 23.7 311.8 24.0 306.0 25.0 C 300.2 26.0 292.7 28.0 287.0 30.0 C 281.3 32.0 276.8 34.3 272.0 37.0 C 267.2 39.7 260.8 44.5 258.0 46.0 C 255.2 47.5 259.2 47.2 255.0 46.0 C 250.8 44.8 239.3 40.7 233.0 39.0 C 226.7 37.3 220.7 36.5 217.0 36.0 C 213.3 35.5 212.2 36.2 211.0 36.0 C 209.8 35.8 214.5 35.3 210.0 35.0 C 205.5 34.7 188.5 34.0 184.0 34.0 C 179.5 34.0 187.2 34.7 183.0 35.0 C 178.8 35.3 166.8 35.0 159.0 36.0 C 151.2 37.0 141.5 39.5 136.0 41.0 C 130.5 42.5 126.5 43.3 126.0 45.0 C 125.5 46.7 130.7 48.5 133.0 51.0 C 135.3 53.5 139.2 58.2 140.0 60.0 C 140.8 61.8 142.7 64.8 138.0 62.0 C 133.3 59.2 119.7 48.0 112.0 43.0 C 104.3 38.0 97.0 34.5 92.0 32.0 C 87.0 29.5 86.0 29.2 82.0 28.0 C 78.0 26.8 73.3 25.3 68.0 25.0 C 62.7 24.7 54.2 24.8 50.0 26.0 C 45.8 27.2 44.8 29.2 43.0 32.0 C 41.2 34.8 39.8 39.3 39.0 43.0 C 38.2 46.7 38.3 52.0 38.0 54.0 C 37.7 56.0 37.0 49.8 37.0 55.0 C 37.0 60.2 37.3 77.5 38.0 85.0 C 38.7 92.5 39.7 95.2 41.0 100.0 C 42.3 104.8 43.8 109.2 46.0 114.0 C 48.2 118.8 50.2 123.2 54.0 129.0 C 57.8 134.8 66.8 145.3 69.0 149.0 C 71.2 152.7 68.5 149.5 67.0 151.0 C 65.5 152.5 61.5 155.2 60.0 158.0 C 58.5 160.8 58.0 164.7 58.0 168.0 C 58.0 171.3 58.3 174.3 60.0 178.0 C 61.7 181.7 64.3 186.7 68.0 190.0 C 71.7 193.3 76.7 195.5 82.0 198.0 C 87.3 200.5 94.0 203.3 100.0 205.0 C 106.0 206.7 113.8 207.7 118.0 208.0 C 122.2 208.3 123.7 206.8 125.0 207.0 C 126.3 207.2 126.7 208.3 126.0 209.0 C 125.3 209.7 125.7 210.3 121.0 211.0 C 116.3 211.7 99.2 211.0 98.0 213.0 C 96.8 215.0 108.7 220.0 114.0 223.0 C 119.3 226.0 123.0 228.3 130.0 231.0 C 137.0 233.7 148.3 237.7 156.0 239.0 C 163.7 240.3 170.8 239.7 176.0 239.0 C 181.2 238.3 184.2 236.8 187.0 235.0 C 189.8 233.2 192.2 229.7 193.0 228.0 C 193.8 226.3 194.3 227.0 192.0 225.0 C 189.7 223.0 182.8 219.2 179.0 216.0 C 175.2 212.8 171.2 208.7 169.0 206.0 C 166.8 203.3 166.5 201.8 166.0 200.0 C 165.5 198.2 165.0 197.0 166.0 195.0 C 167.0 193.0 170.0 189.7 172.0 188.0 C 174.0 186.3 175.2 186.0 178.0 185.0 C 180.8 184.0 183.3 182.5 189.0 182.0 C 194.7 181.5 207.3 181.8 212.0 182.0 C 216.7 182.2 214.7 182.2 217.0 183.0 C 219.3 183.8 223.5 185.3 226.0 187.0 C 228.5 188.7 230.8 190.8 232.0 193.0 C 233.2 195.2 233.3 197.7 233.0 200.0 C 232.7 202.3 232.2 204.2 230.0 207.0 C 227.8 209.8 223.7 214.0 220.0 217.0 C 216.3 220.0 210.0 222.8 208.0 225.0 C 206.0 227.2 207.3 228.5 208.0 230.0 C 208.7 231.5 209.7 232.7 212.0 234.0 C 214.3 235.3 218.5 237.2 222.0 238.0 C 225.5 238.8 227.7 239.7 233.0 239.0 C 238.3 238.3 248.0 236.0 254.0 234.0 C 260.0 232.0 263.0 230.2 269.0 227.0 C 275.0 223.8 289.0 217.8 290.0 215.0 C 291.0 212.2 274.2 212.2 275.0 210.0 C 275.8 207.8 289.2 205.0 295.0 202.0 C 300.8 199.0 305.5 196.0 310.0 192.0 C 314.5 188.0 319.0 182.5 322.0 178.0 C 325.0 173.5 326.7 170.0 328.0 165.0 C 329.3 160.0 329.7 153.0 330.0 148.0 C 330.3 143.0 330.0 137.7 330.0 135.0 C 330.0 132.3 328.7 136.0 330.0 132.0 C 331.3 128.0 335.8 118.8 338.0 111.0 C 340.2 103.2 342.2 94.5 343.0 85.0 C 343.8 75.5 343.7 62.2 343.0 54.0 Z M 283.0 132.0 C 284.3 134.0 284.8 134.8 285.0 138.0 C 285.2 141.2 284.8 147.5 284.0 151.0 C 283.2 154.5 281.7 156.7 280.0 159.0 C 278.3 161.3 276.5 163.3 274.0 165.0 C 271.5 166.7 269.3 168.3 265.0 169.0 C 260.7 169.7 252.8 169.7 248.0 169.0 C 243.2 168.3 238.2 166.2 236.0 165.0 C 233.8 163.8 235.0 165.5 235.0 162.0 C 235.0 158.5 235.3 148.2 236.0 144.0 C 236.7 139.8 237.2 139.5 239.0 137.0 C 240.8 134.5 244.0 131.2 247.0 129.0 C 250.0 126.8 253.7 125.0 257.0 124.0 C 260.3 123.0 263.7 122.7 267.0 123.0 C 270.3 123.3 274.3 124.5 277.0 126.0 Z M 113.0 131.0 C 114.7 129.0 117.5 126.3 120.0 125.0 C 122.5 123.7 125.0 123.2 128.0 123.0 C 131.0 122.8 134.3 122.8 138.0 124.0 C 141.7 125.2 146.8 127.7 150.0 130.0 C 153.2 132.3 155.3 135.5 157.0 138.0 C 158.7 140.5 159.3 140.5 160.0 145.0 C 160.7 149.5 161.8 161.2 161.0 165.0 C 160.2 168.8 158.0 167.3 155.0 168.0 C 152.0 168.7 145.2 168.7 143.0 169.0 C 140.8 169.3 144.2 170.0 142.0 170.0 C 139.8 170.0 133.5 169.8 130.0 169.0 C 126.5 168.2 123.7 166.8 121.0 165.0 C 118.3 163.2 115.8 160.7 114.0 158.0 C 112.2 155.3 110.7 152.5 110.0 149.0 C 109.3 145.5 109.5 140.0 110.0 137.0 Z M 60.0 41.0 C 63.0 40.3 67.8 40.7 72.0 42.0 C 76.2 43.3 81.3 46.7 85.0 49.0 C 88.7 51.3 90.3 52.7 94.0 56.0 C 97.7 59.3 104.0 65.7 107.0 69.0 C 110.0 72.3 111.3 74.5 112.0 76.0 C 112.7 77.5 112.7 77.2 111.0 78.0 C 109.3 78.8 105.3 80.5 102.0 81.0 C 98.7 81.5 93.8 81.3 91.0 81.0 C 88.2 80.7 86.0 77.7 85.0 79.0 C 84.0 80.3 84.5 86.2 85.0 89.0 C 85.5 91.8 86.8 94.2 88.0 96.0 C 89.2 97.8 91.5 99.2 92.0 100.0 C 92.5 100.8 92.8 100.8 91.0 101.0 C 89.2 101.2 83.7 101.5 81.0 101.0 C 78.3 100.5 76.7 99.2 75.0 98.0 C 73.3 96.8 71.7 91.7 71.0 94.0 C 70.3 96.3 70.7 108.2 71.0 112.0 C 71.3 115.8 72.7 115.2 73.0 117.0 C 73.3 118.8 73.2 121.8 73.0 123.0 C 72.8 124.2 73.5 125.2 72.0 124.0 C 70.5 122.8 66.5 119.3 64.0 116.0 C 61.5 112.7 59.2 110.0 57.0 104.0 C 54.8 98.0 52.0 87.8 51.0 80.0 C 50.0 72.2 50.5 62.7 51.0 57.0 C 51.5 51.3 52.5 48.7 54.0 46.0 Z M 312.0 39.0 C 314.5 38.5 316.7 38.0 319.0 39.0 C 321.3 40.0 324.3 42.8 326.0 45.0 C 327.7 47.2 328.2 49.2 329.0 52.0 C 329.8 54.8 330.8 55.2 331.0 62.0 C 331.2 68.8 330.8 85.2 330.0 93.0 C 329.2 100.8 327.0 105.8 326.0 109.0 C 325.0 112.2 324.5 110.7 324.0 112.0 C 323.5 113.3 323.5 115.8 323.0 117.0 C 322.5 118.2 324.0 122.5 321.0 119.0 C 318.0 115.5 311.0 103.2 305.0 96.0 C 299.0 88.8 289.7 80.3 285.0 76.0 C 280.3 71.7 278.0 71.8 277.0 70.0 C 276.0 68.2 276.3 68.3 279.0 65.0 C 281.7 61.7 288.8 53.8 293.0 50.0 C 297.2 46.2 300.8 43.8 304.0 42.0 Z" fill="#000" fill-rule="evenodd"/>
  </g>
</svg>
