<svg xmlns="http://www.w3.org/2000/svg" viewBox="0 0 240 240">
  <path d="M116 50L76 70L66 100L66 133L76 140L73 153L93 163L103 186L133 186L143 163L163 153L160 140L170 133L170 100L156 66Z" fill="#2da565" />
  <path d="M76 118L78 116L94 116L97 118L100 118L108 126L108 132L105 134L105 138L97 143L92 135L86 135L78 127L78 122Z" fill="#111514" />
  <path d="M160 116L162 118L160 122L160 127L152 135L146 135L143 138L143 143L141 143L138 143L132 138L132 134L130 132L130 126L134 122L138 118L144 116Z" fill="#111514" />
  <path d="M116 133L120 133L123 136L123 143L126 146L126 153L120 160L116 160L110 153L110 146L113 143L113 136Z" fill="#111514" />
</svg>
